<?xml version="1.0" standalone="no"?>
<!DOCTYPE svg PUBLIC "-//W3C//DTD SVG 20010904//EN"
 "http://www.w3.org/TR/2001/REC-SVG-20010904/DTD/svg10.dtd">
<svg version="1.0" xmlns="http://www.w3.org/2000/svg"
 width="512.000000pt" height="512.000000pt" viewBox="0 0 512.000000 512.000000"
 preserveAspectRatio="xMidYMid meet">

<g transform="translate(0.000000,512.000000) scale(0.100000,-0.100000)"
fill="#000000" stroke="none">
<path d="M1545 4599 c-686 -72 -1278 -530 -1474 -1141 -66 -207 -66 -209 -66
-898 0 -612 0 -627 23 -727 80 -365 272 -664 584 -910 380 -301 905 -453 1388
-403 398 41 737 189 1045 456 332 287 566 419 909 513 340 94 600 223 813 403
128 108 245 262 296 391 56 140 58 174 55 773 -4 535 -5 551 -26 624 -138 458
-643 791 -1372 905 -143 22 -607 33 -650 15 -53 -22 -74 -85 -46 -139 24 -46
51 -51 255 -51 228 0 360 -12 554 -51 265 -52 509 -148 697 -274 372 -247 488
-605 299 -921 -46 -78 -168 -206 -261 -275 -158 -117 -364 -217 -573 -278
-339 -99 -442 -140 -640 -258 -139 -82 -248 -162 -430 -316 -264 -224 -472
-328 -784 -394 -112 -24 -149 -27 -326 -27 -166 0 -220 4 -320 22 -645 122
-1153 577 -1270 1137 -62 298 6 659 173 919 226 351 579 589 1016 682 114 25
141 27 466 31 215 2 356 8 373 15 48 19 69 80 45 133 -24 53 -41 55 -370 54
-167 -1 -339 -5 -383 -10z m3373 -1944 c-4 -186 -6 -205 -30 -267 -37 -99 -84
-171 -168 -261 -168 -180 -429 -330 -725 -416 -339 -99 -442 -140 -640 -258
-139 -82 -277 -183 -425 -313 -248 -216 -478 -332 -789 -397 -112 -24 -149
-27 -326 -27 -166 0 -220 4 -320 22 -517 98 -964 419 -1165 837 -93 194 -119
305 -126 540 l-6 170 48 -70 c350 -517 985 -828 1634 -802 450 19 821 166
1165 463 254 219 465 354 689 443 40 16 147 50 237 76 348 98 577 213 797 398
45 38 97 88 115 110 l32 41 3 -44 c2 -25 2 -135 0 -245z"/>
<path d="M2611 4596 c-87 -48 -50 -186 49 -186 51 0 100 49 100 99 0 75 -83
124 -149 87z"/>
<path d="M1312 3997 c-18 -8 -102 -167 -338 -639 -173 -345 -314 -637 -314
-647 0 -52 49 -101 99 -101 61 0 59 -3 387 652 173 345 314 637 314 647 0 74
-80 121 -148 88z"/>
<path d="M2212 3997 c-18 -8 -136 -235 -488 -939 -255 -510 -464 -937 -464
-948 0 -51 49 -100 100 -100 61 0 51 -18 536 952 255 510 464 937 464 948 0
73 -80 120 -148 87z"/>
<path d="M3112 3997 c-18 -8 -136 -235 -488 -939 -255 -510 -464 -937 -464
-948 0 -51 49 -100 100 -100 61 0 51 -18 536 952 255 510 464 937 464 948 0
73 -80 120 -148 87z"/>
<path d="M4012 3997 c-18 -8 -85 -133 -263 -489 -131 -263 -239 -487 -239
-497 0 -52 49 -101 99 -101 60 0 63 5 312 502 131 263 239 487 239 497 0 74
-80 121 -148 88z"/>
</g>
</svg>
