<?xml version="1.0" standalone="no"?>
<!DOCTYPE svg PUBLIC "-//W3C//DTD SVG 20010904//EN"
 "http://www.w3.org/TR/2001/REC-SVG-20010904/DTD/svg10.dtd">
<svg version="1.0" xmlns="http://www.w3.org/2000/svg"
 width="512.000000pt" height="512.000000pt" viewBox="0 0 512.000000 512.000000"
 preserveAspectRatio="xMidYMid meet">

<g transform="translate(0.000000,512.000000) scale(0.100000,-0.100000)"
fill="#000000" stroke="none">
<path d="M340 5035 l0 -85 61 0 c53 0 60 -2 55 -17 -4 -9 -12 -47 -18 -85
l-12 -68 -43 0 -43 0 0 -85 0 -85 48 0 47 0 24 -72 c12 -40 25 -79 28 -85 3
-10 -15 -13 -71 -13 l-76 0 0 -85 0 -85 114 0 c131 0 126 5 126 -107 l0 -63
-120 0 -120 0 0 -85 0 -85 95 0 c52 0 95 -4 95 -9 0 -5 -13 -37 -30 -72 -96
-206 -93 -411 9 -632 56 -122 71 -178 71 -272 0 -101 -18 -172 -71 -276 -102
-203 -106 -436 -11 -625 16 -33 40 -88 52 -124 13 -36 26 -69 30 -73 4 -4 42
2 84 15 95 28 98 -5 -32 303 -18 44 -26 84 -30 150 -6 110 11 181 68 296 57
113 81 211 81 334 0 121 -16 183 -81 331 -57 129 -69 175 -70 264 0 86 21 163
75 280 60 128 76 195 76 315 0 123 -24 221 -80 334 -52 101 -71 175 -71 266 1
86 12 139 51 227 33 76 32 107 -8 138 -23 18 -41 20 -164 20 l-139 0 0 -85z"/>
<path d="M891 5093 c-55 -52 -111 -231 -111 -358 0 -95 27 -202 80 -317 102
-219 103 -355 2 -553 -56 -111 -76 -198 -76 -320 0 -133 16 -200 84 -345 91
-193 91 -315 0 -512 -69 -148 -84 -210 -84 -343 0 -129 15 -193 74 -317 l42
-86 76 31 c42 17 78 31 80 33 2 1 -15 38 -37 83 -94 187 -93 320 4 528 63 134
78 198 79 323 0 125 -16 194 -78 330 -63 137 -70 164 -71 270 0 107 11 146 82
296 l44 94 75 0 c41 0 74 -2 74 -4 0 -2 -16 -37 -35 -77 -52 -111 -69 -188
-69 -309 1 -127 16 -189 82 -336 99 -216 96 -325 -16 -564 -53 -113 -66 -174
-66 -300 0 -102 13 -170 50 -258 l13 -33 73 37 c40 20 74 37 76 39 1 1 -6 26
-17 56 -47 138 -36 259 39 420 61 131 80 199 87 309 8 117 -14 214 -82 365
-97 216 -96 332 5 544 l50 106 212 5 213 5 67 32 c49 23 93 57 161 122 l93 90
1255 -73 c879 -52 1271 -71 1312 -66 32 5 91 24 130 43 276 132 340 497 125
716 -60 62 -171 119 -254 131 -37 5 -525 -6 -1310 -28 l-1252 -37 -92 88 c-98
93 -170 137 -258 156 -34 7 -201 11 -477 11 l-425 0 -29 -27z m958 -172 c25
-13 91 -69 149 -125 l104 -101 146 3 c81 2 663 18 1294 37 1242 37 1204 37
1283 -16 94 -64 144 -201 112 -310 -22 -74 -87 -148 -159 -179 -44 -19 -69
-23 -143 -22 -49 1 -622 33 -1272 72 -651 38 -1201 70 -1224 70 -38 0 -47 -6
-148 -105 -156 -152 -127 -145 -538 -145 l-343 0 0 39 c0 21 -3 59 -6 85 l-7
46 222 0 222 0 -3 83 -3 82 -248 3 -248 2 -34 72 c-19 40 -35 78 -35 85 0 10
60 13 285 13 l285 0 0 85 0 85 -294 0 -293 0 9 52 c6 29 16 68 24 86 l13 33
403 -3 c402 -3 403 -3 447 -27z"/>
<path d="M2335 2285 c-220 -39 -419 -126 -604 -265 l-79 -60 -74 0 c-209 0
-445 -83 -627 -221 -221 -166 -361 -394 -425 -692 l-6 -27 -231 0 c-128 0
-238 -4 -248 -10 -32 -17 -44 -65 -38 -143 36 -405 320 -739 714 -840 l88 -22
1755 0 1755 0 88 22 c394 101 678 435 714 840 6 78 -6 126 -38 143 -10 6 -120
10 -248 10 l-231 0 -6 28 c-78 364 -290 641 -610 801 -133 66 -313 111 -441
111 -62 0 -67 2 -116 44 -151 128 -338 217 -562 267 -119 27 -412 35 -530 14z
m533 -190 c221 -57 363 -136 512 -285 58 -58 115 -123 127 -146 l23 -41 -96
-7 -96 -7 -72 68 c-110 105 -237 182 -384 232 -217 74 -492 65 -704 -24 -35
-15 -67 -27 -73 -26 -17 0 -204 66 -205 71 0 9 119 75 199 110 66 29 214 71
296 84 17 2 107 3 200 1 145 -3 185 -7 273 -30z m-1072 -321 c137 -28 135 -24
59 -96 l-67 -62 -156 -1 c-135 -1 -167 -4 -227 -24 -135 -44 -222 -98 -320
-196 -102 -102 -148 -174 -187 -290 l-27 -80 -86 -3 c-83 -3 -85 -2 -85 20 0
41 66 215 108 285 137 230 360 391 617 446 94 20 277 21 371 1z m979 -9 c88
-24 251 -107 324 -166 57 -46 62 -53 45 -62 -11 -6 -44 -27 -75 -48 l-57 -38
-46 35 c-108 82 -269 134 -414 134 -135 -1 -281 -50 -396 -133 l-49 -35 -56
37 c-31 21 -64 43 -75 48 -17 9 -12 16 45 61 108 86 242 149 376 177 86 18
294 13 378 -10z m1015 -22 c290 -98 521 -331 609 -617 34 -110 36 -107 -66
-104 l-86 3 -23 67 c-68 201 -206 358 -396 451 -76 37 -89 47 -105 82 -10 22
-33 64 -50 93 -18 30 -33 56 -33 59 0 8 75 -9 150 -34z m-1974 -326 c148 -52
267 -156 334 -292 22 -44 40 -86 40 -93 0 -8 -25 -12 -87 -12 l-88 0 -30 51
c-87 148 -275 234 -437 200 -122 -25 -224 -94 -284 -191 l-37 -60 -89 0 c-88
0 -89 0 -83 23 36 127 167 278 295 340 113 55 169 67 290 63 81 -2 122 -9 176
-29z m905 5 c80 -26 146 -68 206 -129 55 -56 119 -173 130 -235 l6 -38 -85 0
-84 0 -22 53 c-50 119 -182 207 -312 207 -59 0 -142 -27 -194 -64 l-49 -34
-20 36 c-11 20 -27 48 -37 62 -9 14 -20 30 -24 37 -15 27 122 100 229 123 59
13 192 4 256 -18z m969 -6 c143 -49 275 -167 340 -302 45 -93 45 -94 -54 -94
l-84 0 -26 45 c-38 65 -120 141 -185 171 -144 69 -297 53 -446 -45 l-30 -20
-39 76 -39 75 24 19 c44 33 148 80 212 95 93 21 235 12 327 -20z m-1994 -322
c49 -16 104 -52 104 -66 0 -4 -81 -8 -180 -8 -103 0 -180 4 -180 9 0 12 63 51
109 67 49 18 91 17 147 -2z m921 5 c29 -11 83 -57 83 -71 0 -4 -63 -8 -140 -8
-77 0 -140 4 -140 8 0 13 53 60 80 71 34 13 82 13 117 0z m956 -3 c42 -15 107
-57 107 -68 0 -5 -83 -8 -185 -8 -201 0 -214 5 -134 49 75 43 143 51 212 27z
m1367 -267 c0 -36 -30 -140 -60 -205 -95 -209 -279 -365 -511 -431 -61 -17
-149 -18 -1809 -18 -1660 0 -1748 1 -1809 18 -232 66 -416 222 -511 431 -30
65 -60 169 -60 205 l0 21 2380 0 2380 0 0 -21z"/>
</g>
</svg>
